<svg xmlns="http://www.w3.org/2000/svg" version="1.1" xmlns:xlink="http://www.w3.org/1999/xlink" width="1000" height="1000"><g clip-path="url(#SvgjsClipPath1029)"><rect width="1000" height="1000" fill="#ffffff"></rect><g transform="matrix(20,0,0,20,100,100)"><svg xmlns="http://www.w3.org/2000/svg" version="1.1" xmlns:xlink="http://www.w3.org/1999/xlink" width="40" height="40"><svg width="40" height="40" viewBox="0 0 40 40" fill="none" xmlns="http://www.w3.org/2000/svg">
<path d="M0 7.5C0 5.51088 0.790176 3.60322 2.1967 2.1967C3.60322 0.790176 5.51088 0 7.5 0H21.5C23.4891 0 25.3968 0.790176 26.8033 2.1967C28.2098 3.60322 29 5.51088 29 7.5V11H18.508C16.5189 11 14.6112 11.7902 13.2047 13.1967C11.7982 14.6032 11.008 16.5109 11.008 18.5V29H7.5C6.51509 29 5.53982 28.806 4.62987 28.4291C3.71993 28.0522 2.89314 27.4997 2.1967 26.8033C1.50026 26.1069 0.947814 25.2801 0.570904 24.3701C0.193993 23.4602 0 22.4849 0 21.5V7.5Z" fill="black"></path>
<path d="M11.0078 29H21.4998C22.4847 29 23.46 28.806 24.3699 28.4291C25.2799 28.0522 26.1067 27.4997 26.8031 26.8033C27.4996 26.1069 28.052 25.2801 28.4289 24.3701C28.8058 23.4602 28.9998 22.4849 28.9998 21.5V11H32.5078C34.4969 11 36.4046 11.7902 37.8111 13.1967C39.2176 14.6032 40.0078 16.5109 40.0078 18.5V32.5C40.0078 34.4891 39.2176 36.3968 37.8111 37.8033C36.4046 39.2098 34.4969 40 32.5078 40H18.5078C16.5187 40 14.611 39.2098 13.2045 37.8033C11.798 36.3968 11.0078 34.4891 11.0078 32.5V29Z" fill="black"></path>
</svg></svg></g></g><defs><clipPath id="SvgjsClipPath1029"><rect width="1000" height="1000" x="0" y="0" rx="300" ry="300"></rect></clipPath></defs></svg>