<svg xmlns="http://www.w3.org/2000/svg" version="1.1" xmlns:xlink="http://www.w3.org/1999/xlink" width="1000" height="1000"><g clip-path="url(#SvgjsClipPath1005)"><rect width="1000" height="1000" fill="#ffffff"></rect><g transform="matrix(3.1963470319634704,0,0,3.1963470319634704,150,305.0228310502283)"><svg xmlns="http://www.w3.org/2000/svg" version="1.1" xmlns:xlink="http://www.w3.org/1999/xlink" width="219" height="122"><svg width="219" height="122" viewBox="0 0 219 122" fill="none" xmlns="http://www.w3.org/2000/svg">
<path d="M58.6935 11.1577C63.0266 5.67539 69.582 1.93841 76.9455 0.753043C84.309 -0.432322 91.8902 1.02895 98.0534 4.82159C104.217 8.61422 108.468 14.4342 109.89 21.0258C111.312 27.6174 109.791 34.4522 105.654 40.0556L51.8452 110.457C47.5375 115.999 40.9696 119.792 33.5725 121.009C26.1753 122.226 18.5484 120.769 12.3532 116.956C6.15813 113.143 1.89689 107.282 0.49792 100.65C-0.901054 94.0184 0.675602 87.1535 4.88439 81.551L58.6935 11.1577ZM139.325 11.1372C143.606 5.53592 150.187 1.68724 157.618 0.437833C165.049 -0.811572 172.722 0.640644 178.95 4.47501C185.177 8.30938 189.448 14.2118 190.824 20.8838C192.2 27.5558 190.567 34.4509 186.286 40.0522L132.476 110.445C128.169 115.987 121.601 119.78 114.204 120.997C106.807 122.214 99.1796 120.757 92.9845 116.944C86.7894 113.131 82.5281 107.27 81.1291 100.638C79.7302 94.0064 81.3068 87.1415 85.5156 81.539L139.325 11.1372ZM190.046 118.417C197.603 118.345 204.824 115.58 210.122 110.729C215.419 105.879 218.359 99.341 218.294 92.5538C218.229 85.7666 215.165 79.2861 209.775 74.538C204.386 69.7898 197.113 67.163 189.556 67.2352C182 67.3075 174.778 70.073 169.481 74.9234C164.184 79.7738 161.244 86.3117 161.309 93.0989C161.374 99.886 164.438 106.367 169.827 111.115C175.216 115.863 182.489 118.49 190.046 118.417Z" fill="#FF4800"></path>
</svg></svg></g></g><defs><clipPath id="SvgjsClipPath1005"><rect width="1000" height="1000" x="0" y="0" rx="350" ry="350"></rect></clipPath></defs></svg>