<svg xmlns="http://www.w3.org/2000/svg" viewBox="0 0 1000 1000" fill="none">
  <rect width="1000" height="1000" fill="#ffffff" rx="350"/>
  <g transform="matrix(3.196,0,0,3.196,150,305)">
    <path d="M58.69 11.16C63.03 5.68 69.58 1.94 76.95.75 84.31-.43 91.89 1.03 98.05 4.82 104.22 8.61 108.47 14.43 109.89 21.03 111.31 27.62 109.79 34.45 105.65 40.06L51.85 110.46C47.54 116 40.97 119.79 33.57 121.01 26.18 122.23 18.55 120.77 12.35 116.96 6.16 113.14 1.9 107.28.5 100.65-.9 94.02.68 87.15 4.88 81.55L58.69 11.16ZM139.33 11.14c4.28-5.6 10.86-9.45 18.29-10.7 7.43-1.25 15.1.2 21.33 4.04 6.23 3.83 10.5 9.74 11.87 16.41 1.38 6.67-.23 13.57-4.51 19.17L132.48 110.45c-4.31 5.54-10.88 9.33-18.28 10.55-7.4 1.22-15.02-.24-21.22-4.05-6.2-3.82-10.46-9.68-11.86-16.31-1.4-6.63.18-13.5 4.39-19.1L139.33 11.14ZM190.05 118.42c7.56-.07 14.78-2.83 20.07-7.69 5.3-4.85 8.24-11.39 8.18-18.17-.06-6.79-3.12-13.27-8.51-18.02-5.39-4.75-12.66-7.38-20.22-7.31-7.56.07-14.78 2.83-20.07 7.69-5.3 4.85-8.24 11.39-8.18 18.17.06 6.79 3.12 13.27 8.51 18.02 5.39 4.75 12.66 7.38 20.22 7.31Z" fill="#FF4800"/>
  </g>
</svg>
